<?xml version="1.0" encoding="UTF-8"?><svg id="Warstwa_2" xmlns="http://www.w3.org/2000/svg" xmlns:xlink="http://www.w3.org/1999/xlink" viewBox="0 0 187 187"><defs><style>.cls-1{fill:#fff;}.cls-2{fill:#299da1;}.cls-3{fill:#00343f;}.cls-4{fill:#00505f;}.cls-5{clip-path:url(#clippath);}.cls-6{fill:none;}.cls-7{fill:#006c74;}.cls-8{fill:#005f74;}</style><clipPath id="clippath"><rect class="cls-6" y="0" width="187" height="187" rx="12.33" ry="12.33"/></clipPath></defs><g id="Warstwa_1-2"><g><rect class="cls-2" width="187" height="187" rx="12.33" ry="12.33"/><g class="cls-5"><g><rect class="cls-3" x="0" y="0" width="56" height="56"/><rect class="cls-8" x="0" y="56" width="56" height="56"/><rect class="cls-4" x="56" y="0" width="56" height="56"/><polygon class="cls-7" points="56 112 56 56 112 56 56 112"/></g></g><g><path class="cls-1" d="M125.5,136.67l-8.86-15.35c-3.6-5.87-5.87-9.68-8.03-13.7h-.21c-1.96,4.02-3.91,7.72-7.52,13.8l-8.34,15.24h-10.3l21.22-35.12-20.39-34.3h10.4l9.17,16.27c2.58,4.53,4.53,8.03,6.39,11.74h.31c1.96-4.12,3.71-7.31,6.28-11.74l9.48-16.27h10.3l-21.11,33.78,21.63,35.64h-10.4Z"/><path class="cls-1" d="M124.23,100.88c4.53-.93,11.02-1.44,17.2-1.44,9.58,0,15.76,1.75,20.08,5.67,3.5,3.09,5.46,7.83,5.46,13.18,0,9.17-5.77,15.24-13.08,17.72v.31c5.36,1.85,8.55,6.8,10.2,14.01,2.27,9.68,3.91,16.38,5.36,19.05h-9.27c-1.13-1.96-2.68-7.93-4.63-16.58-2.06-9.58-5.77-13.18-13.9-13.49h-8.45v30.08h-8.96V100.88Zm8.96,31.62h9.17c9.58,0,15.66-5.25,15.66-13.18,0-8.96-6.49-12.87-15.96-12.98-4.33,0-7.42,.41-8.86,.82v25.34Z"/></g></g></g></svg>